<!DOCTYPE svg PUBLIC "-//W3C//DTD SVG 1.1//EN" "http://www.w3.org/Graphics/SVG/1.1/DTD/svg11.dtd">
<!-- Uploaded to: SVG Repo, www.svgrepo.com, Transformed by: SVG Repo Mixer Tools -->
<svg height="800px" width="800px" version="1.1" id="Layer_1" xmlns="http://www.w3.org/2000/svg" xmlns:xlink="http://www.w3.org/1999/xlink" viewBox="0 0 512.022 512.022" xml:space="preserve" fill="#000000">
<g id="SVGRepo_bgCarrier" stroke-width="0"/>
<g id="SVGRepo_tracerCarrier" stroke-linecap="round" stroke-linejoin="round"/>
<g id="SVGRepo_iconCarrier"> <path style="fill:#FDC794;" d="M512,326.632V220.701c0-16.772-14.124-35.31-30.897-35.31s-30.897,17.655-30.897,34.428v-43.255 c0-16.772-14.124-35.31-30.897-35.31s-30.897,18.538-30.897,35.31v61.793v-97.103c0-16.772-14.124-35.31-30.897-35.31 s-30.897,18.538-30.897,35.31V35.321c0-16.772-14.124-35.31-30.897-35.31c-16.772,0-30.897,18.538-30.897,35.31v247.172 c0-24.717-21.186-74.152-44.138-97.103c-19.421-19.421-74.152-6.179-44.138,35.31c21.186,29.131,35.31,90.924,35.31,123.586 c0,78.566,61.793,105.931,61.793,105.931v61.793h211.862v-61.793l0,0C513.766,412.259,512,414.025,512,326.632"/> <g> <path style="fill:#F9A671;" d="M388.414,441.39h-26.483c-5.297,0-8.828-3.531-8.828-8.828s3.531-8.828,8.828-8.828h26.483 c5.297,0,8.828,3.531,8.828,8.828S393.71,441.39,388.414,441.39z"/> <path style="fill:#F9A671;" d="M397.241,476.701h-44.138c-5.297,0-8.828-3.531-8.828-8.828s3.531-8.828,8.828-8.828h44.138 c5.297,0,8.828,3.531,8.828,8.828S402.538,476.701,397.241,476.701z"/> </g> <path style="fill:#71C386;" d="M158.897,79.459c0-44.138-35.31-79.448-79.448-79.448S0,35.321,0,79.459s35.31,79.448,79.448,79.448 S158.897,123.597,158.897,79.459"/> <g> <path style="fill:#FFFFFF;" d="M79.448,132.425c-5.297,0-8.828-3.531-8.828-8.828V35.321c0-5.297,3.531-8.828,8.828-8.828 s8.828,3.531,8.828,8.828v88.276C88.276,128.894,84.745,132.425,79.448,132.425"/> <path style="fill:#FFFFFF;" d="M123.586,88.287H35.31c-5.297,0-8.828-3.531-8.828-8.828s3.531-8.828,8.828-8.828h88.276 c5.297,0,8.828,3.531,8.828,8.828S128.883,88.287,123.586,88.287"/> </g> <g> <path style="fill:#F9A671;" d="M326.621,256.011c-5.297,0-8.828-3.531-8.828-8.828V132.425c0-5.297,3.531-8.828,8.828-8.828 s8.828,3.531,8.828,8.828v114.759C335.448,252.48,331.917,256.011,326.621,256.011z"/> <path style="fill:#F9A671;" d="M388.414,264.838c-5.297,0-8.828-3.531-8.828-8.828v-88.276c0-5.297,3.531-8.828,8.828-8.828 s8.828,3.531,8.828,8.828v88.276C397.241,261.307,393.71,264.838,388.414,264.838z"/> <path style="fill:#F9A671;" d="M450.207,264.838c-5.297,0-8.828-3.531-8.828-8.828v-44.138c0-5.297,3.531-8.828,8.828-8.828 c5.297,0,8.828,3.531,8.828,8.828v44.138C459.034,261.307,455.503,264.838,450.207,264.838z"/> </g> </g>
</svg>